<?xml version="1.0" encoding="UTF-8" standalone="no"?>
<!-- Created with Inkscape (http://www.inkscape.org/) -->

<svg
   width="27.99964mm"
   height="31.500072mm"
   viewBox="0 0 27.99964 31.500072"
   version="1.1"
   id="svg1"
   xml:space="preserve"
   xmlns:inkscape="http://www.inkscape.org/namespaces/inkscape"
   xmlns:sodipodi="http://sodipodi.sourceforge.net/DTD/sodipodi-0.dtd"
   xmlns:xlink="http://www.w3.org/1999/xlink"
   xmlns="http://www.w3.org/2000/svg"
   xmlns:svg="http://www.w3.org/2000/svg"><sodipodi:namedview
     id="namedview1"
     pagecolor="#ffffff"
     bordercolor="#000000"
     borderopacity="0.25"
     inkscape:showpageshadow="2"
     inkscape:pageopacity="0.0"
     inkscape:pagecheckerboard="0"
     inkscape:deskcolor="#d1d1d1"
     inkscape:document-units="mm" /><defs
     id="defs1"><linearGradient
       id="linearGradient9"><stop
         style="stop-color:#ad8b00;stop-opacity:1;"
         offset="0"
         id="stop10" /><stop
         style="stop-color:#ffcf0a;stop-opacity:1;"
         offset="0.17250673"
         id="stop12" /><stop
         style="stop-color:#ad8b00;stop-opacity:1;"
         offset="0.43665767"
         id="stop14" /><stop
         style="stop-color:#ffcf0a;stop-opacity:1;"
         offset="0.6469003"
         id="stop13" /><stop
         style="stop-color:#ad8b00;stop-opacity:1;"
         offset="1"
         id="stop11" /></linearGradient><linearGradient
       id="swatch2"><stop
         style="stop-color:#ab8a00;stop-opacity:1;"
         offset="0"
         id="stop2" /></linearGradient><linearGradient
       xlink:href="#swatch2"
       id="linearGradient2"
       x1="61.652695"
       y1="101.64652"
       x2="144.42931"
       y2="101.64652"
       gradientUnits="userSpaceOnUse"
       gradientTransform="translate(0.41918298,0.62876274)" /><linearGradient
       xlink:href="#linearGradient9"
       id="linearGradient11"
       x1="98.555389"
       y1="76.028442"
       x2="97.517967"
       y2="152.94611"
       gradientUnits="userSpaceOnUse"
       spreadMethod="reflect"
       gradientTransform="translate(0.41918298,0.62876274)" /><linearGradient
       xlink:href="#swatch2"
       id="linearGradient15"
       x1="115.69452"
       y1="72.46627"
       x2="152.16345"
       y2="72.46627"
       gradientUnits="userSpaceOnUse" /></defs><g
     inkscape:label="Camada 1"
     inkscape:groupmode="layer"
     id="layer1"
     transform="translate(-86.125498,-102.75911)"><g
       id="g16"
       transform="matrix(0.30783693,0,0,0.28597065,67.094444,89.24603)"
       inkscape:export-filename="ivcd_icon.svg"
       inkscape:export-xdpi="96"
       inkscape:export-ydpi="96"><path
         style="fill:url(#linearGradient11);fill-opacity:1;stroke:url(#linearGradient2);stroke-width:0.5;stroke-dasharray:none"
         d="m 62.071878,149.72162 c 13.823358,6.24072 32.710915,5.25122 32.604249,1.89815 l -1.601715,-50.34857 -16.947618,0.005 -1.571011,-11.070851 18.39346,0.0632 -0.624839,-16.322208 12.695146,0.163778 -0.45785,15.974901 18.35572,0.06352 -2.0451,10.95157 -15.82139,0.0109 -0.66352,47.80837 c 6.123,-2.96335 12.24727,-5.91404 17.98465,-12.73357 -3.44985,-10.50633 7.03134,-24.71779 7.87936,-43.227101 -0.33427,-18.350223 -21.86166,-30.32769 -25.45635,-45.565638 12.81801,19.03306 29.63749,33.323601 29.11725,46.873124 -1.40007,16.812895 -8.43186,18.657245 -8.20168,36.655755 22.99109,-28.76758 9.815,-54.520936 4.83128,-61.822861 19.80192,12.316303 14.72414,41.343691 10.07789,48.907191 -23.96252,40.94601 -59.389322,46.46136 -78.547932,31.71555 z"
         id="path2" /><path
         style="fill:#ffffff;fill-opacity:1;stroke:url(#linearGradient15);stroke-width:0.499999;stroke-dasharray:none"
         d="m 115.69452,70.108367 1.34963,-1.109347 0.37051,-0.185255 c 1.41219,-6.598638 5.62017,-2.723657 9.6592,0.08046 0.67321,-1.405753 1.82808,-2.885607 3.35346,-3.772647 2.23323,-1.171206 6.35837,-3.452269 7.52252,-9.40774 0.27947,-1.429716 0.78966,-4.328473 1.75563,-4.049527 1.43325,0.413888 0.40406,2.40949 0.30167,3.877445 0,0 1.30939,-1.045983 1.77518,-0.610796 1.05148,0.982411 -0.30804,4.593034 -0.30804,4.593034 0,0 0.93396,-0.425678 1.36235,0.209593 0.42839,0.635271 0,1.886323 0,1.886323 3.49898,-2.818341 6.20725,-9.678934 7.65009,-9.64121 1.44284,0.03772 -0.62878,5.868561 -0.62878,5.868561 0,0 1.91156,-1.071635 2.56487,0.320745 0.65331,1.39238 -1.94267,4.273654 -2.98405,5.757411 0,0 0.58964,-0.26823 0.87256,-0.401334 0.43137,-0.202941 1.2081,-0.898491 1.64254,-0.01785 0.64453,1.306498 -3.77265,5.658972 -3.77265,5.658972 0,0 1.17932,0.03489 1.15275,1.257548 -0.0266,1.222658 -4.26011,4.148968 -4.26011,4.148968 0,0 0.81248,0.509542 0.38267,1.300412 -0.42981,0.79087 -3.87744,1.152755 -3.87744,1.152755 0,0 1.77263,0.944035 0.67745,2.201256 -0.48631,0.558269 -3.19051,1.158244 -5.44855,0.590405 -2.82706,-0.71093 -5.27017,-2.716233 -5.39409,-2.791661 2.78897,9.095471 10.89842,12.33824 13.10474,13.954725 1.138,0.833771 0.41209,1.479765 -0.80888,1.443423 -1.14619,-0.03412 -2.75945,-0.726743 -2.75945,-0.726743 0,0 -0.21209,1.471319 -0.94316,1.571937 -0.73107,0.100618 -1.88632,-1.781527 -1.88632,-1.781527 0,0 -0.75928,1.58445 -1.88633,1.362345 -1.12705,-0.222105 -2.4103,-3.877445 -2.4103,-3.877445 0,0 0.91744,2.29625 -0.83836,2.5151 -1.7558,0.21885 -4.29663,-6.706931 -4.29663,-6.706931 -5.69013,-0.745094 -8.12934,-5.309839 -7.97046,-10.271807 0.0621,-1.940969 -0.38406,-4.479183 -2.78337,-4.697095 z"
         id="path14" /><path
         style="fill:#000000;fill-opacity:1;stroke:#000000;stroke-width:0.326744;stroke-dasharray:none;stroke-opacity:1"
         id="path15"
         d="m 120.35107,67.686987 a 0.49197364,0.27358499 0 0 1 -0.49889,-0.269684 0.49197364,0.27358499 0 0 1 0.48495,-0.277431 0.49197364,0.27358499 0 0 1 0.4989,0.269681 0.49197364,0.27358499 0 0 1 -0.48496,0.277434" /><path
         style="fill:#ffffff;fill-opacity:1;stroke:#ab8a00;stroke-width:0.499999;stroke-dasharray:none;stroke-opacity:1"
         d="m 142.98655,61.50372 c -5.52152,6.370898 -9.45511,6.077119 -9.45511,6.077119"
         id="path16" /></g></g></svg>
